<svg xmlns="http://www.w3.org/2000/svg" xmlns:xlink="http://www.w3.org/1999/xlink" width="500" zoomAndPan="magnify" viewBox="0 0 375 374.999991" height="500" preserveAspectRatio="xMidYMid meet" version="1.0"><defs><clipPath id="id1"><path d="M 140.855469 159.523438 L 230.105469 159.523438 L 230.105469 262.273438 L 140.855469 262.273438 Z M 140.855469 159.523438 " clip-rule="nonzero"/></clipPath><clipPath id="id2"><path d="M 160.570312 179.207031 L 210.070312 179.207031 L 210.070312 242.957031 L 160.570312 242.957031 Z M 160.570312 179.207031 " clip-rule="nonzero"/></clipPath></defs><g clip-path="url(#id1)"><path fill="rgb(2.349854%, 57.649231%, 89.019775%)" d="M 141.996094 235.941406 L 185.480469 260.980469 L 228.960938 235.941406 L 228.960938 185.867188 L 185.480469 160.828125 L 141.996094 185.867188 Z M 185.480469 262.28125 L 140.863281 236.59375 L 140.863281 185.214844 L 185.480469 159.527344 L 230.09375 185.214844 L 230.09375 236.59375 L 185.480469 262.28125 " fill-opacity="1" fill-rule="nonzero"/></g><g clip-path="url(#id2)"><path fill="rgb(2.349854%, 57.649231%, 89.019775%)" d="M 191.460938 206.796875 L 184.582031 205.265625 C 177.167969 203.617188 174.320312 201.128906 174.320312 197.222656 C 174.320312 192.273438 178.101562 188.910156 185.320312 188.910156 C 191.335938 188.910156 195.269531 191.726562 196.671875 195.78125 C 196.777344 196.078125 196.871094 196.378906 196.941406 196.695312 C 197.003906 196.984375 197.054688 197.25 197.09375 197.480469 C 197.210938 198.140625 197.78125 198.609375 198.445312 198.609375 L 207.320312 198.609375 C 207.699219 198.609375 208.066406 198.449219 208.324219 198.167969 C 208.582031 197.886719 208.71875 197.507812 208.6875 197.125 C 207.925781 186.410156 198.65625 179.210938 185.621094 179.210938 C 171.457031 179.210938 161.945312 186.820312 161.945312 198.144531 C 161.945312 206.796875 168.46875 212.027344 179.320312 214.402344 L 187.066406 216.132812 C 194.734375 217.863281 197.695312 220.320312 197.695312 224.503906 C 197.695312 229.375 192.910156 233.253906 185.867188 233.253906 C 179.398438 233.253906 174.601562 230.519531 172.917969 226.515625 C 172.636719 225.800781 172.441406 225.136719 172.3125 224.617188 C 172.15625 223.996094 171.609375 223.554688 170.976562 223.554688 L 161.945312 223.554688 C 161.558594 223.554688 161.191406 223.714844 160.929688 224.003906 C 160.671875 224.289062 160.542969 224.667969 160.574219 225.054688 C 161.480469 235.929688 171.144531 242.957031 185.203125 242.957031 C 200.542969 242.957031 210.070312 235.523438 210.070312 223.554688 C 210.070312 214.699219 203.597656 209.453125 191.460938 206.796875 Z M 191.460938 206.796875 " fill-opacity="1" fill-rule="nonzero"/></g><path fill="rgb(2.349854%, 57.649231%, 89.019775%)" d="M 134.71875 182.0625 L 134.71875 240.183594 L 185.34375 269.246094 L 235.96875 240.183594 L 235.96875 182.0625 L 185.34375 153.003906 L 134.71875 182.0625 M 233.226562 183.644531 L 233.226562 238.601562 L 185.34375 266.082031 L 137.460938 238.601562 L 137.460938 183.644531 L 185.34375 156.164062 L 233.226562 183.644531 " fill-opacity="1" fill-rule="nonzero"/></svg>